<svg id="visual" viewBox="0 0 900 450" width="900" height="450" xmlns="http://www.w3.org/2000/svg" xmlns:xlink="http://www.w3.org/1999/xlink" version="1.1"><rect x="0" y="0" width="900" height="450" fill="#FFFFFF"></rect><defs><linearGradient id="grad1_0" x1="50%" y1="100%" x2="100%" y2="0%"><stop offset="10%" stop-color="#ffffff" stop-opacity="1"></stop><stop offset="90%" stop-color="#ffffff" stop-opacity="1"></stop></linearGradient></defs><defs><linearGradient id="grad2_0" x1="0%" y1="100%" x2="50%" y2="0%"><stop offset="10%" stop-color="#ffffff" stop-opacity="1"></stop><stop offset="90%" stop-color="#ffffff" stop-opacity="1"></stop></linearGradient></defs><g transform="translate(900, 450)"><path d="M-180 0C-177.4 -23.6 -174.9 -47.2 -166.3 -68.9C-157.7 -90.5 -143.2 -110.2 -125.9 -125.9C-108.5 -141.6 -88.4 -153.3 -67 -161.7C-45.5 -170 -22.8 -175 0 -180L0 0Z" fill="#6351ce"></path></g><g transform="translate(0, 0)"><path d="M180 0C177.7 23.9 175.4 47.7 166.3 68.9C157.2 90 141.3 108.5 123.7 123.7C106.2 139 87.1 151 66.2 159.8C45.3 168.7 22.7 174.3 0 180L0 0Z" fill="#6351ce"></path></g></svg>