<svg id="visual" viewBox="0 0 900 450" width="900" height="450" xmlns="http://www.w3.org/2000/svg" xmlns:xlink="http://www.w3.org/1999/xlink" version="1.1"><rect x="0" y="0" width="900" height="450" fill="#FFFFFF"></rect><defs><linearGradient id="grad1_0" x1="50%" y1="0%" x2="100%" y2="100%"><stop offset="10%" stop-color="#ffffff" stop-opacity="1"></stop><stop offset="90%" stop-color="#ffffff" stop-opacity="1"></stop></linearGradient></defs><defs><linearGradient id="grad2_0" x1="0%" y1="0%" x2="50%" y2="100%"><stop offset="10%" stop-color="#ffffff" stop-opacity="1"></stop><stop offset="90%" stop-color="#ffffff" stop-opacity="1"></stop></linearGradient></defs><g transform="translate(900, 0)"><path d="M0 180C-23.6 177.4 -47.2 174.9 -68.9 166.3C-90.5 157.7 -110.2 143.2 -125.9 125.9C-141.6 108.5 -153.3 88.4 -161.7 67C-170 45.5 -175 22.8 -180 0L0 0Z" fill="#6351ce"></path></g><g transform="translate(0, 450)"><path d="M0 -180C23.9 -177.7 47.7 -175.4 68.9 -166.3C90 -157.2 108.5 -141.3 123.7 -123.7C139 -106.2 151 -87.1 159.8 -66.2C168.7 -45.3 174.3 -22.7 180 0L0 0Z" fill="#6351ce"></path></g></svg>