<svg xmlns="http://www.w3.org/2000/svg" version="1.1" xmlns:xlink="http://www.w3.org/1999/xlink" xmlns:svgjs="http://svgjs.dev/svgjs" width="4096" height="2160" preserveAspectRatio="none" viewBox="0 0 4096 2160"><g mask="url(&quot;#SvgjsMask3917&quot;)" fill="none"><rect width="4096" height="2160" x="0" y="0" fill="rgba(26, 25, 26, 1)"></rect><use xlink:href="#SvgjsG3939" transform="translate(0, 0)" fill="rgba(99, 81, 206, 1)"></use><use xlink:href="#SvgjsG3939" transform="translate(0, 624)" fill="rgba(99, 81, 206, 1)"></use><use xlink:href="#SvgjsG3939" transform="translate(0, 1248)" fill="rgba(99, 81, 206, 1)"></use><use xlink:href="#SvgjsG3939" transform="translate(0, 1872)" fill="rgba(99, 81, 206, 1)"></use><use xlink:href="#SvgjsG3939" transform="translate(624, 0)" fill="rgba(99, 81, 206, 1)"></use><use xlink:href="#SvgjsG3939" transform="translate(624, 624)" fill="rgba(99, 81, 206, 1)"></use><use xlink:href="#SvgjsG3939" transform="translate(624, 1248)" fill="rgba(99, 81, 206, 1)"></use><use xlink:href="#SvgjsG3939" transform="translate(624, 1872)" fill="rgba(99, 81, 206, 1)"></use><use xlink:href="#SvgjsG3939" transform="translate(1248, 0)" fill="rgba(99, 81, 206, 1)"></use><use xlink:href="#SvgjsG3939" transform="translate(1248, 624)" fill="rgba(99, 81, 206, 1)"></use><use xlink:href="#SvgjsG3939" transform="translate(1248, 1248)" fill="rgba(99, 81, 206, 1)"></use><use xlink:href="#SvgjsG3939" transform="translate(1248, 1872)" fill="rgba(99, 81, 206, 1)"></use><use xlink:href="#SvgjsG3939" transform="translate(1872, 0)" fill="rgba(99, 81, 206, 1)"></use><use xlink:href="#SvgjsG3939" transform="translate(1872, 624)" fill="rgba(99, 81, 206, 1)"></use><use xlink:href="#SvgjsG3939" transform="translate(1872, 1248)" fill="rgba(99, 81, 206, 1)"></use><use xlink:href="#SvgjsG3939" transform="translate(1872, 1872)" fill="rgba(99, 81, 206, 1)"></use><use xlink:href="#SvgjsG3939" transform="translate(2496, 0)" fill="rgba(99, 81, 206, 1)"></use><use xlink:href="#SvgjsG3939" transform="translate(2496, 624)" fill="rgba(99, 81, 206, 1)"></use><use xlink:href="#SvgjsG3939" transform="translate(2496, 1248)" fill="rgba(99, 81, 206, 1)"></use><use xlink:href="#SvgjsG3939" transform="translate(2496, 1872)" fill="rgba(99, 81, 206, 1)"></use><use xlink:href="#SvgjsG3939" transform="translate(3120, 0)" fill="rgba(99, 81, 206, 1)"></use><use xlink:href="#SvgjsG3939" transform="translate(3120, 624)" fill="rgba(99, 81, 206, 1)"></use><use xlink:href="#SvgjsG3939" transform="translate(3120, 1248)" fill="rgba(99, 81, 206, 1)"></use><use xlink:href="#SvgjsG3939" transform="translate(3120, 1872)" fill="rgba(99, 81, 206, 1)"></use><use xlink:href="#SvgjsG3939" transform="translate(3744, 0)" fill="rgba(99, 81, 206, 1)"></use><use xlink:href="#SvgjsG3939" transform="translate(3744, 624)" fill="rgba(99, 81, 206, 1)"></use><use xlink:href="#SvgjsG3939" transform="translate(3744, 1248)" fill="rgba(99, 81, 206, 1)"></use><use xlink:href="#SvgjsG3939" transform="translate(3744, 1872)" fill="rgba(99, 81, 206, 1)"></use></g><defs><mask id="SvgjsMask3917"><rect width="4096" height="2160" fill="#ffffff"></rect></mask><g id="SvgjsG3927"><path d="M7.275 1.252h5.267l0.848 0.856c0.153 0.155 0.15 0.264 0 0.42l-1.034 1.034-0.606-0.606-0.606 0.606-0.597-0.597-0.582 0.58-0.606-0.606-0.792 0.792H7.275V1.251z m5.655 8.143l-0.986-2.545c-0.184-0.487-0.587-0.901-1.349-0.905h-5.178c-0.758 0.003-1.162 0.418-1.349 0.905l-0.985 2.545C2.691 9.445 1.998 9.905 2 10.776v3.24h0.961v1.033c-0.002 1.274 1.802 1.259 1.802 0v-1.035h6.486v1.034c0.004 1.26 1.808 1.275 1.81 0v-1.034h0.961V10.776c-0.003-0.871-0.696-1.331-1.09-1.381z m-9.04 2.665c-0.461 0.002-0.834-0.383-0.832-0.856-0.002-0.476 0.371-0.86 0.832-0.856 0.46-0.004 0.833 0.381 0.832 0.856 0.001 0.473-0.372 0.857-0.832 0.856z m4.12-2.689H4.108l0.743-2.004c0.09-0.284 0.229-0.488 0.559-0.493h5.201c0.324 0.005 0.464 0.208 0.558 0.493l0.744 2.004H8.01z m4.12 2.689c-0.464 0.002-0.837-0.383-0.84-0.856 0.003-0.476 0.376-0.86 0.84-0.856 0.456-0.004 0.829 0.381 0.832 0.856-0.003 0.473-0.376 0.857-0.832 0.856z"></path><path d="M5.433 0C4.069-0.003 2.964 1.113 2.961 2.488c0.003 1.378 1.108 2.494 2.472 2.496 1.361-0.002 2.466-1.118 2.464-2.496C7.899 1.113 6.794-0.003 5.433 0z m-1.082 3.142c-0.365-0.003-0.658-0.3-0.655-0.662-0.003-0.368 0.29-0.664 0.655-0.662 0.358-0.002 0.652 0.294 0.654 0.662-0.003 0.362-0.296 0.659-0.654 0.662z"></path></g><g id="SvgjsG3920"><path d="M15.828 7.44l-1.288-1.3H6.996C6.352 5.004 5.141 4.237 3.752 4.24 1.681 4.236 0.004 5.93 0 8.016c0.005 2.091 1.681 3.785 3.751 3.788 1.386-0.002 2.594-0.767 3.24-1.9h1.517l1.202-1.202 0.92 0.92 0.882-0.883 0.908 0.906 0.919-0.919 0.919 0.919 1.57-1.568c0.226-0.236 0.233-0.402 0-0.637zM2.109 9.009c-0.553-0.005-0.998-0.455-0.993-1.006-0.005-0.558 0.44-1.008 0.993-1.005 0.544-0.003 0.989 0.447 0.993 1.005-0.004 0.55-0.449 1-0.993 1.006z"></path></g><g id="SvgjsG3921"><path d="M12.16 7.692l-0.293 0.501s-0.053 0.108-0.223 0.108H10.791l-0.487-1.447c0.038-0.007 0.078-0.015 0.105-0.019 0.305-0.055 0.409-0.055 0.636 0.061 0 0 0.971 0.501 1.037 0.539 0.082 0.04 0.133 0.16 0.078 0.256z m-2.332-0.745l0.459 1.354H6.895c-0.074 0-0.152-0.044-0.152-0.16v-0.183c0-0.099 0.042-0.16 0.131-0.203 0.103-0.048 0.718-0.293 1.089-0.391a40.023 40.023 0 0 1 1.865-0.417z m1.789 3.792c0.442-0.07 1.276-0.204 1.755-0.34 0.208-0.053 0.419-0.268 0.48-0.392l1.144-1.744v2.183c0 0.246 0.366 0.246 0.366 0V8.193h0.156c0.438 0 0.438-0.657 0-0.657h-0.156V5.356c0-0.246-0.366-0.246-0.366 0v2.18h-0.106c-0.39-0.038-2.224-0.234-2.578-0.417-0.356-0.187-0.729-0.398-1.077-0.577-0.32-0.16-0.506-0.149-0.853-0.09-0.196 0.038-1.349 0.253-2.467 0.537-1.38 0.349-3.084 1.152-3.084 1.152l-1.948 0.007c-0.446-0.129-0.621-0.963-0.815-1.33L1.577 5.828c-0.036-0.082-0.126-0.107-0.211-0.11l-1.241-0.075c-0.187-0.011-0.116 0.145-0.09 0.235l0.851 3.337c0.089 0.373 0.607 0.729 0.971 0.767l5.013 0.769h0.063l4.685-0.012z" fill-rule="evenodd"></path></g><g id="SvgjsG3923"><path d="M7.288 1.124a0.565 0.565 0 0 1-0.562-0.562C6.726 0.248 6.979-0.004 7.288 0a0.555 0.555 0 0 1 0.562 0.562c0.002 0.309-0.25 0.561-0.562 0.562z m1.498 0c0.31-0.001 0.562-0.253 0.562-0.562 0-0.313-0.252-0.565-0.562-0.562A0.556 0.556 0 0 0 8.224 0.562c-0.002 0.309 0.25 0.561 0.562 0.562z m2.231 11.366c0.78-0.13 1.557-0.944 1.555-1.938v-7.254c0.002-1.023-0.86-1.963-2.028-1.962H5.537c-1.174-0.001-2.036 0.939-2.035 1.962v7.255c-0.001 0.994 0.776 1.808 1.555 1.938L2.72 16h1.351l1.669-2.459H10.333L12.01 16h1.344L11.017 12.49zM6.718 2.085c0-0.182 0.155-0.331 0.333-0.334h1.972c0.179 0.003 0.334 0.152 0.334 0.334v0.57a0.334 0.334 0 0 1-0.334 0.334H7.052c-0.187 0-0.333-0.153-0.334-0.334v-0.57zM5.488 11.432a0.895 0.895 0 0 1-0.887-0.896c-0.001-0.491 0.398-0.89 0.887-0.887a0.891 0.891 0 0 1 0.896 0.887c-0.002 0.493-0.402 0.892-0.896 0.896z m0.114-4.714c-0.561-0.003-1.019-0.387-1.018-1.018v-1.303c0.004-0.544 0.355-1.017 1.018-1.018h4.869c0.664 0.001 1.015 0.474 1.018 1.018v1.302c0.002 0.631-0.456 1.015-1.018 1.018h-4.869zM9.674 10.536c-0.002-0.491 0.397-0.89 0.887-0.887a0.891 0.891 0 0 1 0.896 0.887c-0.003 0.493-0.402 0.892-0.896 0.896a0.894 0.894 0 0 1-0.887-0.895z"></path></g><g id="SvgjsG3919"><path d="M5.942 5.059s0.24-0.368-0.043-0.512H3.845s-0.33 0.171 0.013 0.728l2.086-0.216zM10.288 6.04s0.101 0.141-0.006 0.224l-2.605 2.016 0.315 0.442L10.576 6.736s0.042-0.083 0.17 0.088l0.022-0.272-0.48-0.512z"></path><path d="M7.811 4.501s-0.112 0.013-0.099-0.08V4.08s0.042-0.088 0.112-0.08h2.421s0.571 0.013 0.214 0.501c0 0-0.293 0.235-0.149 0.589L12.608 9.165l-0.4 0.232-1.941-3.328s0.035-0.054-0.264-0.048h-4.224l1.162 2.107-0.471 0.288L5.12 6.096s-0.048-0.053-0.085 0.016l-1.142 2.528s-0.029 0.069 0.086 0.085l2.298 0.008 0.057 0.472H3.45s-0.342 0-0.208-0.341l1.484-3.408s0.022 0-0.006-0.058l-0.155-0.252 0.64-0.08 0.102 0.2s0.027 0.086 0.128 0.073h4.218s0.16 0.032 0.16-0.16c0-0.192-0.125-0.234 0.025-0.56 0 0 0.056-0.112-0.064-0.112H7.808"></path><path d="M3.437 6.96a2.064 2.064 0 0 0 0 4.128 2.064 2.064 0 0 0 0-4.128zM12.288 6.96a2.064 2.064 0 1 0 2.064 2.064 2.064 2.064 0 0 0-2.064-2.064z"></path><path d="M7.131 8.341a0.688 0.688 0 1 0 0 1.376 0.688 0.688 0 0 0 0-1.376z"></path></g><g id="SvgjsG3924"><path d="M16 1.427V0.88L0 6.998v0.548zM7.019 3.594c0.478 0 0.868-0.395 0.868-0.881 0-0.485-0.39-0.876-0.868-0.876-0.48 0-0.87 0.391-0.87 0.876 0 0.486 0.39 0.881 0.872 0.881zM12.408 8.155H8.531V4.976l-0.542 0.219V8.155H4.076c-0.306 0-0.556 0.252-0.556 0.563V14.618c0 0.31 0.25 0.564 0.556 0.563h8.333c0.307 0 0.557-0.253 0.557-0.563V8.717c0-0.31-0.251-0.562-0.558-0.562z m-5.915 3.204c0 0.168-0.133 0.307-0.299 0.307H4.36c-0.166 0-0.303-0.138-0.303-0.306V9.51c0-0.168 0.137-0.306 0.302-0.306H6.194c0.166 0 0.299 0.138 0.299 0.306v1.849z m2.981-0.023a0.302 0.302 0 0 1-0.303 0.304H7.342a0.301 0.301 0 0 1-0.303-0.302V9.483c0-0.168 0.135-0.301 0.303-0.301H9.171c0.167 0 0.303 0.134 0.303 0.301v1.853z m2.958 0c0 0.17-0.131 0.304-0.299 0.304H10.299a0.302 0.302 0 0 1-0.303-0.302V9.483c0-0.168 0.137-0.301 0.303-0.301h1.834c0.168 0 0.3 0.134 0.3 0.301v1.853zM9.096 2.811c0.48 0 0.87-0.395 0.87-0.881s-0.39-0.882-0.87-0.882c-0.478 0-0.868 0.395-0.868 0.882s0.39 0.881 0.868 0.881z"></path></g><g id="SvgjsG3932"><path d="M12.175 9.664c-0.839 0-1.519 0.68-1.519 1.519a1.519 1.519 0 0 0 1.519 1.519c0.838 0 1.518-0.68 1.517-1.519 0-0.839-0.68-1.519-1.517-1.519z m0 2.246a0.726 0.726 0 0 1 0-1.453 0.726 0.726 0 0 1 0.726 0.726 0.726 0.726 0 0 1-0.727 0.727zM3.478 9.649c-0.838 0-1.518 0.681-1.518 1.519a1.518 1.518 0 0 0 1.518 1.519c0.839 0 1.519-0.679 1.519-1.519 0-0.838-0.68-1.519-1.519-1.519z m0.003 2.247a0.726 0.726 0 0 1 0-1.452 0.726 0.726 0 0 1 0 1.452z" fill-rule="evenodd"></path><path d="M14.724 6.863c0.454 0.088 0.725 0.284 0.93 1.404l0.324 2.021c0.116 0.658-0.255 0.898-0.718 0.898H14.147c0-1.09-0.883-1.976-1.972-1.976-1.09 0-1.973 0.886-1.973 1.976H5.446c0-1.09-0.883-1.976-1.972-1.976-1.09 0-1.973 0.886-1.974 1.976H0.578C0.253 11.186 0 10.94 0 10.622V3.978C0 3.616 0.286 3.325 0.636 3.325h11.94c0.454 0 0.786 0.225 0.95 0.62l1.198 2.918zM10.744 4.002v2.76H13.936l-1.12-2.76H10.744z" fill-rule="evenodd"></path></g><g id="SvgjsG3930"><path d="M7.626 3.541A1.056 1.056 0 1 0 7.622 1.424a1.056 1.056 0 0 0 0.004 2.117m-1.786 0.176a0.304 0.304 0 0 0-0.224-0.368l-0.88-0.208a0.301 0.301 0 0 0-0.368 0.217L3.632 6.421a0.304 0.304 0 0 0 0.224 0.368l0.883 0.211c0.16 0.04 0.325-0.059 0.362-0.224L5.84 3.712z m4.064 10.902v0.016a0.243 0.243 0 0 0 0.483 0.032l1.776-9.629v-0.022a0.24 0.24 0 0 0-0.24-0.24c-0.123 0-0.218 0.093-0.243 0.211L9.904 14.618zM4 13.987a0.741 0.741 0 0 0 1.443 0.363l1.28-5.292 1.219 5.259a0.741 0.741 0 0 0 1.447-0.346L7.715 6.986l0.144-0.616 0.109 0.486c0.099 0.315 0.387 0.347 0.387 0.347l1.722 0.439a0.507 0.507 0 0 0 0.224-0.992l-1.493-0.375-0.41-1.664c-0.197-0.928-1.085-0.906-1.084-0.905-0.864-0.021-1.078 0.885-1.079 0.884L4 13.987z" fill-rule="evenodd"></path></g><g id="SvgjsG3938"><path d="M6.227 3.92a1.056 1.056 0 1 0 0-2.115 1.056 1.056 0 0 0 0 2.112M7.472 12.464h5.032s0.325 0.021 0.971-0.496l1.104-0.843v0.95l-1.126 0.84s-0.336 0.272-0.896 0.336H7.05l0.422-0.789z m-7.008 0.784h5.034l0.419-0.784H0.842l-0.42 0.784H0.464z m6.307-8.042a1.059 1.059 0 0 0-2.118 0v2.592c0 0.326 0.16 0.634 0.397 0.828H2.678l-1.28 2.328a0.389 0.389 0 0 0 0.344 0.56h8.736s0.378 0.064 0.944-0.384l2.266-1.668-0.856-1.496s-0.192-0.363-0.915-0.472l-1.712-0.288-0.919-1.536-0.011-0.016a0.368 0.368 0 0 0-0.517-0.035v0.005a0.365 0.365 0 0 0-0.089 0.406l0.681 1.136v0.012l-0.854 1.452-1.725-0.656V7.328h1.36a0.496 0.496 0 0 0 0.487-0.678 0.496 0.496 0 0 0-0.46-0.32l-1.392-0.005v-1.114" fill-rule="evenodd"></path></g><g id="SvgjsG3936"><path d="M15.781 13.589a2.31 2.31 0 0 1-0.969-0.213 2.386 2.386 0 0 0-1.002-0.225c-0.356 0-0.699 0.083-1 0.225a2.334 2.334 0 0 1-0.973 0.213 2.354 2.354 0 0 1-0.973-0.213 2.368 2.368 0 0 0-0.998-0.225c-0.357 0-0.696 0.083-1.003 0.225a2.316 2.316 0 0 1-0.97 0.213 2.32 2.32 0 0 1-0.971-0.213A2.387 2.387 0 0 0 5.92 13.151c-0.356 0-0.7 0.083-1 0.225a2.326 2.326 0 0 1-0.972 0.213c-0.347 0-0.676-0.078-0.975-0.213a2.36 2.36 0 0 0-0.997-0.225c-0.357 0-0.698 0.083-1.003 0.225a2.325 2.325 0 0 1-0.971 0.213v-1.472a2.352 2.352 0 0 0 0.971-0.213 2.388 2.388 0 0 1 1.003-0.226c0.354 0 0.697 0.083 0.998 0.224 0.299 0.134 0.628 0.213 0.975 0.213 0.346 0 0.677-0.079 0.971-0.213a2.366 2.366 0 0 1 1-0.224c0.357 0 0.698 0.083 1.003 0.224a2.349 2.349 0 0 0 0.972 0.213 2.346 2.346 0 0 0 0.969-0.213c0.307-0.141 0.646-0.224 1.004-0.224 0.354 0 0.696 0.083 0.998 0.224 0.299 0.134 0.63 0.213 0.973 0.213a2.365 2.365 0 0 0 0.973-0.213 2.367 2.367 0 0 1 1-0.225c0.356 0 0.697 0.083 1.002 0.224a2.339 2.339 0 0 0 0.97 0.214v1.472zM0.008 7.264L0.002 10.74c0.345 0 0.676-0.077 0.971-0.211a2.378 2.378 0 0 1 1.002-0.225c0.354 0 0.697 0.083 0.998 0.225a2.384 2.384 0 0 0 0.975 0.211c0.345 0 0.676-0.077 0.972-0.211A2.356 2.356 0 0 1 5.92 10.304c0.356 0 0.697 0.083 1.002 0.225a2.352 2.352 0 0 0 0.971 0.211c0.343 0 0.677-0.077 0.97-0.211 0.307-0.142 0.646-0.225 1.004-0.225 0.354 0 0.696 0.083 0.998 0.225a2.388 2.388 0 0 0 0.973 0.211c0.098 0 0.192-0.021 0.287-0.031 0.173-0.039 0.349-0.056 0.518-0.124l0.013-0.006c1.253-0.512 2.335-1.787 3.009-2.736l0.337-0.579H0.008zM12.515 3.352C12.13 2.488 11.094 2.562 11.094 2.562H0.002L0 6.688h13.906L12.515 3.352zM5.324 5.794c0 0.159-0.13 0.291-0.289 0.29h-1.282c-0.159 0-0.287-0.132-0.287-0.29V3.819a0.288 0.288 0 0 1 0.288-0.288h1.281a0.29 0.29 0 0 1 0.29 0.288v1.975z m2.665 0c0 0.159-0.13 0.291-0.287 0.29h-1.291c-0.16 0-0.288-0.132-0.288-0.29V3.819a0.288 0.288 0 0 1 0.287-0.288h1.291A0.288 0.288 0 0 1 7.987 3.819v1.975z m-5.32 0c0 0.159-0.131 0.291-0.288 0.29H1.09c-0.159 0-0.287-0.132-0.287-0.29V3.819c0-0.158 0.128-0.288 0.287-0.288h1.291a0.29 0.29 0 0 1 0.288 0.288v1.975zM8.934 3.53h2.313l0.019-0.002h0.015c0.024-0.002 0.634-0.026 0.839 0.434l0.883 2.123H9.994L8.934 3.53z"></path></g><g id="SvgjsG3935"><path d="M12.57 11.336c0.436 0 0.787-0.358 0.788-0.801 0-0.437-0.351-0.796-0.788-0.796-0.438 0-0.789 0.358-0.788 0.796 0 0.443 0.351 0.801 0.788 0.801z m-1.822-0.801c0-1.014 0.814-1.839 1.823-1.839 1.004 0 1.818 0.825 1.818 1.839 0 1.019-0.814 1.843-1.818 1.843-1.008 0-1.822-0.825-1.823-1.843z"></path><path d="M15.279 8.566l-0.004-1.856c0-0.739-0.65-0.661-0.65-0.661H10.946L9.604 3.76H8.814l1.342 2.289-1.016 1.739-2.318-0.004c-0.801-1.662-2.428-1.558-2.428-1.558H0v3.95h0.628c0.084-1.344 1.361-2.409 2.71-2.409 1.349 0 2.629 1.068 2.71 2.409l3.82 0.004c0.081-1.345 1.361-2.413 2.71-2.413 1.349 0 2.633 1.068 2.71 2.415l0.237 0.003c0.263 0 0.475-0.216 0.476-0.482v-1.138h-0.721v0.001z"></path><path d="M3.331 11.336c0.437 0 0.791-0.358 0.79-0.801 0-0.437-0.354-0.796-0.791-0.796-0.434 0-0.789 0.358-0.788 0.796 0 0.443 0.355 0.801 0.788 0.801z m-1.819-0.801c0-1.014 0.815-1.839 1.819-1.839 1.008 0 1.82 0.825 1.819 1.839 0 1.019-0.813 1.843-1.82 1.843-1.004 0-1.819-0.825-1.819-1.843z"></path></g><g id="SvgjsG3925"><path d="M15.301 16c-0.316 0-0.624-0.074-0.897-0.199a2.16 2.16 0 0 0-0.924-0.209c-0.328 0-0.643 0.077-0.923 0.21-0.277 0.124-0.581 0.198-0.901 0.198-0.316 0-0.625-0.074-0.896-0.198a2.171 2.171 0 0 0-0.927-0.21c-0.326 0-0.643 0.077-0.922 0.21-0.276 0.124-0.581 0.199-0.901 0.198-0.32 0-0.624-0.074-0.897-0.198a2.171 2.171 0 0 0-0.924-0.209c-0.33 0-0.646 0.077-0.925 0.209a2.176 2.176 0 0 1-0.899 0.198c-0.317 0-0.624-0.074-0.899-0.198a2.17 2.17 0 0 0-0.924-0.21c-0.328 0-0.644 0.077-0.924 0.21C1.344 15.926 1.04 16 0.72 16v-1.363a2.155 2.155 0 0 0 0.898-0.198 2.232 2.232 0 0 1 0.924-0.204c0.329 0 0.644 0.076 0.924 0.204a2.164 2.164 0 0 0 0.899 0.198c0.319 0 0.626-0.073 0.899-0.198a2.224 2.224 0 0 1 0.925-0.204c0.328 0 0.645 0.076 0.924 0.204a2.146 2.146 0 0 0 0.898 0.198c0.319 0 0.625-0.073 0.9-0.198a2.224 2.224 0 0 1 0.922-0.204c0.33 0 0.646 0.076 0.926 0.204 0.272 0.125 0.581 0.199 0.897 0.198 0.319 0 0.624-0.073 0.901-0.198a2.218 2.218 0 0 1 0.922-0.204c0.33 0 0.646 0.076 0.925 0.204a2.159 2.159 0 0 0 0.897 0.198V16zM10.237 2.425c2.443 1.148 5.344 4.21 4.963 7.885H10.237V2.425zM14.151 11.051h-11.044v2.027c0.124 0.033 0.248 0.069 0.36 0.124 0.274 0.121 0.581 0.195 0.898 0.195 0.32 0 0.626-0.075 0.899-0.195a2.17 2.17 0 0 1 0.925-0.209c0.328 0 0.645 0.077 0.925 0.209 0.273 0.121 0.578 0.195 0.897 0.195 0.319 0 0.624-0.075 0.9-0.195a2.176 2.176 0 0 1 0.922-0.209c0.33 0 0.646 0.077 0.927 0.209 0.272 0.121 0.581 0.195 0.896 0.195 0.062 0 0.12-0.016 0.178-0.022 0.007 0 0.007 0.007 0.014 0.007 0.04 0 0.07-0.018 0.11-0.018 0.073-0.01 0.145-0.019 0.218-0.036 0.653-0.137 1.075-0.651 1.075-0.651l1.27-1.625h-0.37v0zM9.477 0.011c-0.02-0.014-0.047-0.017-0.068 0.007L9.408 0.019c0 0-0.001 0-0.001 0.001L1.104 10.268c-0.031 0.038-0.014 0.102 0.042 0.102h8.303c0.033 0 0.06-0.027 0.06-0.06V0.062a0.053 0.053 0 0 0-0.032-0.051z"></path></g><g id="SvgjsG3922"><path d="M8.762 15.71c0.785-0.343 1.152-0.297 1.795 0.042 0.651 0.339 1.298 0.339 2.065-0.051 0.759-0.389 1.38-0.167 1.729 0.043 0.285 0.174 0.573 0.244 1.007 0.243v-1.553c-0.652-0.003-0.932-0.226-0.932-0.226-0.672-0.413-1.288-0.33-2.131 0.108-0.485 0.252-1.25 0.186-1.796-0.092-0.742-0.394-1.165-0.298-1.947 0.051-0.607 0.269-1.154 0.268-1.754 0-0.786-0.35-1.189-0.444-1.938-0.051-0.539 0.278-1.316 0.344-1.796 0.092-0.848-0.439-1.453-0.522-2.123-0.108 0 0-0.292 0.222-0.932 0.226v1.552c0.404 0 0.719-0.078 0.991-0.243 0.343-0.212 0.985-0.431 1.745-0.042 0.766 0.389 1.413 0.389 2.056 0.05 0.65-0.338 1.009-0.399 1.796-0.059 0.763 0.388 1.517 0.353 2.165 0.017z m5.672-3.768c-1.32-0.724-1.895 0.154-2.601 0.15V8.585l1.091-2.527c0.167-0.386 0.001-0.741-0.395-0.914l-0.663-0.268V2.694H10.582V1.544H8.795V0H6.571v1.544h-1.787v1.15h-1.284v2.182l-0.664 0.268c-0.397 0.173-0.563 0.528-0.394 0.915l1.091 2.526V12.093c-0.708 0.003-1.311-0.861-2.602-0.143 0 0-0.37 0.208-0.931 0.218v1.511c0.438-0.034 0.648-0.104 0.982-0.286 0.35-0.201 0.994-0.392 1.754 0 0.766 0.386 1.413 0.386 2.056 0.05 0.651-0.341 1.215-0.357 1.821-0.05 0.762 0.386 1.361 0.39 2.132 0.009 0.619-0.317 1.177-0.299 1.821 0.041 0.651 0.336 1.297 0.336 2.064-0.05 0.759-0.392 1.4-0.195 1.754 0 0.312 0.164 0.531 0.251 0.982 0.286V12.16c-0.574-0.015-0.932-0.218-0.932-0.218zM10.918 4.473l-3.239-1.334-3.231 1.334v-0.881h1.275v-1.133h3.919v1.133h1.276v0.881z"></path></g><g id="SvgjsG3937"><path d="M15.367 13.469a2.272 2.272 0 0 1-0.914-0.196 2.226 2.226 0 0 0-0.939-0.209c-0.334 0-0.654 0.077-0.938 0.209a2.254 2.254 0 0 1-0.912 0.196c-0.32 0-0.634-0.074-0.911-0.196a2.25 2.25 0 0 0-0.938-0.209 2.234 2.234 0 0 0-0.939 0.209c-0.279 0.123-0.588 0.196-0.912 0.196-0.324 0-0.637-0.074-0.912-0.196a2.237 2.237 0 0 0-0.939-0.209c-0.336 0-0.656 0.077-0.94 0.209a2.253 2.253 0 0 1-0.912 0.196 2.238 2.238 0 0 1-0.909-0.196c-0.288-0.132-0.609-0.209-0.938-0.209-0.335 0-0.656 0.077-0.939 0.209-0.281 0.123-0.59 0.196-0.914 0.197v-1.367c0.324 0 0.633-0.074 0.914-0.196a2.225 2.225 0 0 1 0.939-0.209c0.33 0 0.65 0.077 0.938 0.209a2.235 2.235 0 0 0 0.909 0.196c0.324 0 0.637-0.074 0.912-0.196a2.24 2.24 0 0 1 0.94-0.209c0.334 0 0.654 0.077 0.939 0.209a2.254 2.254 0 0 0 0.912 0.196c0.324 0 0.633-0.074 0.912-0.196a2.236 2.236 0 0 1 0.938-0.209c0.332 0 0.652 0.077 0.939 0.209 0.277 0.123 0.59 0.196 0.911 0.197a2.256 2.256 0 0 0 0.912-0.196 2.237 2.237 0 0 1 0.938-0.209c0.336 0 0.656 0.077 0.939 0.209a2.269 2.269 0 0 0 0.914 0.196v1.366zM12.038 5.135l-0.29 0.496s-0.053 0.107-0.22 0.107H10.683l-0.482-1.432c0.038-0.007 0.077-0.015 0.104-0.019 0.302-0.055 0.405-0.055 0.629 0.06 0 0 0.961 0.496 1.027 0.533 0.081 0.04 0.132 0.158 0.077 0.255m-2.308-0.737l0.454 1.34H6.826c-0.074 0-0.15-0.043-0.151-0.159v-0.181c0-0.098 0.041-0.158 0.13-0.201 0.102-0.047 0.711-0.29 1.078-0.387a39.622 39.622 0 0 1 1.847-0.412M6.752 9.632l0.545-1.468h3.773l0.544 1.462-4.862 0.006z m9.101-0.013l-3.803 0.003-0.549-1.47c0.437-0.07 1.263-0.202 1.738-0.337 0.205-0.053 0.415-0.266 0.475-0.388l1.132-1.727v2.162c0 0.243 0.362 0.243 0.362 0V5.631h0.155c0.434 0 0.434-0.65 0-0.65h-0.155V2.822c0-0.243-0.362-0.243-0.362 0v2.158h-0.105c-0.386-0.038-2.201-0.232-2.552-0.412-0.352-0.185-0.722-0.394-1.067-0.571-0.317-0.158-0.501-0.147-0.844-0.089-0.194 0.038-1.336 0.251-2.442 0.531-1.366 0.345-3.053 1.14-3.054 1.14l-1.928 0.008c-0.441-0.128-0.614-0.954-0.806-1.318L1.562 3.29c-0.036-0.081-0.124-0.106-0.21-0.11l-1.228-0.073c-0.185-0.011-0.115 0.143-0.089 0.232l0.842 3.303c0.088 0.37 0.601 0.722 0.962 0.76l4.962 0.762h0.063l-0.545 1.468-3.901 0.003c-0.096 0-0.173 0.053-0.174 0.146v0.249c0 0.104 0.062 0.173 0.174 0.207 0.32 0.096 1.283 0.36 2.433 0.64 0.04-0.015 0.081-0.022 0.121-0.041a2.684 2.684 0 0 1 1.142-0.255c0.394 0 0.78 0.085 1.136 0.251 0.224 0.104 0.471 0.155 0.714 0.155s0.483-0.051 0.707-0.151a2.738 2.738 0 0 1 1.144-0.254c0.387 0 0.784 0.089 1.134 0.25a1.738 1.738 0 0 0 0.715 0.155c0.243 0 0.49-0.051 0.707-0.151 0.36-0.166 0.754-0.254 1.144-0.254 0.37 0 0.741 0.081 1.08 0.228 0.948-0.313 1.283-0.569 1.283-0.57 0.074-0.06 0.123-0.123 0.122-0.218v-0.257c0-0.096-0.053-0.147-0.147-0.146"></path></g><g id="SvgjsG3934"><path d="M1.76 3.926C0.788 3.928 0.002 4.714 0 5.687c0.002 0.966 0.788 1.752 1.76 1.752 0.968 0 1.754-0.785 1.752-1.752 0.002-0.973-0.784-1.76-1.752-1.761z m0 2.875c-0.619 0-1.119-0.501-1.122-1.114a1.126 1.126 0 0 1 1.122-1.122c0.615 0.002 1.115 0.502 1.115 1.122 0.001 0.613-0.499 1.114-1.115 1.114z m5.645 4.515c-1.341-0.005-1.341 1.802 0 1.8h7.768c1.305 0.001 1.305-1.805 0-1.8H7.405z m2.301-6.219V3.459H9.012v1.638z"></path><path d="M10.764 3.507v-0.356h-2.802v0.356z"></path><path d="M11.006 2.909h4.482c0.596-0.003 0.596 0.852 0 0.848H11.006c-0.577 0.004-0.577-0.851 0-0.848zM3.246 2.909h4.425c0.596-0.003 0.596 0.852 0 0.848h-4.425c-0.634 0.004-0.642-0.851 0-0.848zM16.069 8.756l-0.896-2.165c-0.318-0.794-1.008-1.536-2.245-1.534H1.817c-0.706-0.003-0.857 0.917-0.235 1.155l5.112 2.035 0.452 1.13c0.093 0.354 0.38 0.774 0.953 0.776h6.953c0.794-0.005 1.334-0.653 1.018-1.396zM10.909 7.674h-1.195V5.751H10.909V7.674z m1.898 0h-1.187V5.751h1.187V7.674z m0.727 0.008V5.833c0.371 0.088 0.741 0.419 0.985 0.969l0.379 0.88H13.534z"></path></g><g id="SvgjsG3931"><path d="M14.548 5.951L13.236 2.565C12.991 1.916 12.455 1.365 11.441 1.36H4.548c-1.01 0.005-1.546 0.556-1.795 1.205l-1.312 3.386C0.92 6.019-0.002 6.63 0 7.79V12.102h1.28v1.377c-0.003 1.697 2.398 1.677 2.397 0V12.102h8.635v1.377c0.005 1.677 2.407 1.697 2.408 0V12.102h1.28V7.79c-0.004-1.16-0.926-1.772-1.452-1.838zM2.516 9.5c-0.613 0.002-1.11-0.51-1.107-1.139-0.003-0.634 0.494-1.146 1.107-1.141 0.612-0.005 1.108 0.507 1.108 1.141 0.001 0.629-0.496 1.141-1.108 1.139zM8 5.92H2.806l0.99-2.667c0.119-0.379 0.305-0.65 0.742-0.656H11.462c0.431 0.006 0.617 0.277 0.742 0.656l0.99 2.665H8z m5.484 3.58c-0.618 0.002-1.115-0.51-1.118-1.139 0.003-0.634 0.5-1.146 1.118-1.141 0.607-0.005 1.104 0.507 1.107 1.141-0.004 0.629-0.5 1.141-1.107 1.139z"></path></g><g id="SvgjsG3918"><path d="M8.699 10.18a1.46 1.46 0 0 0 1.132-1.423 1.459 1.459 0 0 0-1.46-1.459 1.459 1.459 0 0 0-1.459 1.459 1.456 1.456 0 0 0 0.563 1.152L0 8.257v3.941l8.187 0.005c0.368 0 0.691-0.192 0.874-0.48a1.037 1.037 0 0 0 1.75 0 1.036 1.036 0 0 0 1.75 0c0.184 0.288 0.507 0.48 0.875 0.48s0.691-0.192 0.875-0.481a1.036 1.036 0 0 0 0.875 0.481 1.036 1.036 0 0 0 0.816-0.396L8.699 10.181zM7.608 8.757a0.763 0.763 0 1 1 1.526 0 0.763 0.763 0 0 1-1.526 0z"></path><path d="M14.878 9.648l-4.899-1.066a1.628 1.628 0 0 1-0.044 0.588l4.819 1.049 0.125-0.571M0.726 6.571l-0.124 0.571L6.778 8.485a1.616 1.616 0 0 1 0.204-0.553l-6.256-1.361M5.384 5.107l1.685-0.954L6.892 3.84 4.856 4.993 1.5 4.267c0.023 2.088 2.313 2.694 2.313 2.694l3.357 0.715a1.612 1.612 0 0 1 1.201-0.535c0.719 0 1.329 0.469 1.539 1.118l4.232 0.901 1.055-1.931L5.384 5.107"></path></g><g id="SvgjsG3928"><path d="M6.837 0.883c0.002-1.183 1.782-1.183 1.784 0.033v4.953L15.558 10.047v1.826L8.654 9.605V13.307l1.593 1.25V16L7.787 15.242 5.32 16v-1.443l1.584-1.25V9.605L0 11.873V10.047l6.837-4.178V0.883z"></path></g><g id="SvgjsG3933"><path d="M12.655 5.134V3.126H12.472c-0.55 0-0.993 0.45-0.993 1.004 0 0.556 0.443 1.003 0.993 1.004h0.183z m-1.497-0.458L10.29 2.924C10.097 2.563 9.724 2.32 9.287 2.32h-2.014C7.083 2.32 6.933 2.474 6.933 2.665c0 0.189 0.15 0.343 0.339 0.343l2.015-0.001c0.164 0 0.345 0.112 0.416 0.268l0.553 1.119 0.901 0.284z m4.002 1.877c0.262 0.075 0.454 0.322 0.454 0.61l-1.466 0.002c-1.931 0-3.499 1.587-3.499 3.539H5.872c0-1.569-1.01-2.898-2.404-3.364L0.835 6.464l0.436-0.674a0.865 0.865 0 0 1 0.724-0.391c0.068 0 0.131 0.006 0.187 0.018l5.864 1.838a0.771 0.771 0 0 0 0.227 0.036c0.265 0 0.496-0.136 0.633-0.343l1.333-1.948 4.921 1.554z"></path><path d="M13.617 12.22c0.496 0 0.893-0.406 0.893-0.901 0-0.501-0.398-0.903-0.893-0.903-0.49 0-0.887 0.402-0.887 0.903 0 0.495 0.398 0.901 0.887 0.901M11.232 11.319c0-1.335 1.068-2.411 2.385-2.411C14.931 8.908 16 9.984 16 11.319c0 1.331-1.069 2.411-2.383 2.411-1.316 0-2.385-1.08-2.385-2.411m-8.603 0.733c0.538 0 0.979-0.442 0.979-0.99 0-0.548-0.442-0.992-0.979-0.991-0.544 0-0.981 0.443-0.981 0.991 0 0.548 0.437 0.99 0.981 0.99M0 11.06c0-1.461 1.174-2.65 2.623-2.65 1.451 0 2.621 1.189 2.621 2.65 0 1.465-1.17 2.654-2.621 2.654C1.174 13.714 0 12.525 0 11.06"></path></g><g id="SvgjsG3929"><path d="M6.841 8.863l-0.614-1.566c-0.119-0.296-0.371-0.55-0.845-0.553h-0.875V6.336c0-0.161-0.09-0.244-0.23-0.245h-1.023c-0.146 0.002-0.235 0.085-0.238 0.245v0.407h-0.883c-0.471 0.003-0.723 0.257-0.837 0.553l-0.622 1.566c-0.243 0.03-0.676 0.312-0.675 0.846V11.696H0.598v0.637c0.001 0.779 1.13 0.77 1.129 0V11.696H5.789v0.637c0.001 0.77 1.13 0.779 1.128 0V11.696h0.607V9.708c-0.004-0.534-0.437-0.816-0.683-0.845zM1.182 10.483a0.529 0.529 0 0 1-0.522-0.53 0.529 0.529 0 0 1 0.523-0.53c0.288 0.003 0.522 0.239 0.523 0.53-0.001 0.291-0.234 0.527-0.522 0.53z m2.58-1.659H1.313l0.468-1.205c0.059-0.176 0.146-0.301 0.353-0.3h3.256c0.202-0.002 0.289 0.123 0.345 0.3l0.469 1.205h-2.442z m2.572 1.659c-0.285-0.003-0.519-0.239-0.522-0.53 0.003-0.291 0.237-0.527 0.522-0.53a0.526 0.526 0 0 1 0.522 0.53 0.527 0.527 0 0 1-0.521 0.53zM11.892 3.12c0.014 0 0.029 0.001 0.043 0.001 0.014 0 0.028-0.001 0.042-0.001h-0.085z m3.716 1.451c-0.112-0.541-0.463-0.757-0.99-0.975C14.099 3.385 12.856 3.13 11.935 3.121c-0.92 0.01-2.163 0.264-2.683 0.475-0.525 0.218-0.877 0.434-0.983 0.975l-0.4 2.994V11.696h0.683v0.645c-0.003 0.791 1.17 0.791 1.174 0V11.696h4.423v0.645c-0.003 0.791 1.17 0.791 1.166 0V11.696H16V7.565L15.608 4.571zM10.265 3.88h3.339c0.333-0.001 0.333 0.485 0 0.484h-3.339c-0.331 0.001-0.331-0.485 0-0.484zM9.136 10.398a0.553 0.553 0 0 1-0.56-0.552c-0.001-0.305 0.251-0.553 0.56-0.553 0.312 0 0.564 0.248 0.561 0.554 0.004 0.307-0.248 0.556-0.561 0.553z m2.757-2.518H8.914c-0.294 0.002-0.356-0.204-0.33-0.414l0.307-2.173c0.046-0.262 0.137-0.437 0.483-0.438h5.12c0.349 0.001 0.44 0.175 0.483 0.438l0.308 2.172c0.027 0.21-0.035 0.416-0.331 0.415H11.893z m2.84 2.518c-0.31 0.003-0.562-0.245-0.56-0.553-0.002-0.305 0.25-0.553 0.56-0.552 0.311 0 0.563 0.246 0.561 0.552 0.003 0.307-0.249 0.555-0.561 0.552z"></path></g><g id="SvgjsG3926"><path d="M12.393 6.969a3.464 3.464 0 1 0 0 6.927 3.464 3.464 0 0 0 0-6.927z m0 5.284a1.82 1.82 0 1 1 0-3.639 1.82 1.82 0 0 1 0 3.639zM2.352 10.017a1.937 1.937 0 1 0 0 3.874 1.937 1.937 0 0 0 0-3.874z m-0.001 2.919a0.981 0.981 0 1 1 0-1.961 0.981 0.981 0 0 1 0 1.961z" fill-rule="evenodd"></path><path d="M12.393 5.997c-0.28 0-0.555 0.026-0.821 0.076-0.091-1.511-0.535-1.848-0.667-2.311-0.045-0.163 0.093-0.482 0.093-0.783 0-0.059-0.017-0.787-0.64-0.787-0.598 0-0.745 0.452-0.745 0.452V3.625c0 0.084 0.073 0.153 0.165 0.153h0.216l-0.666 1.34-1.026 0.808-0.292-0.34-3.722 0.862V2.192H3.873v4.353l-0.034 0.007-3.411 0.175V9.048l0.459 1.139a2.284 2.284 0 0 1 1.465-0.53 2.295 2.295 0 0 1 1.918 1.037h4.31a3.695 3.695 0 0 1-0.01-0.261c0-2.108 1.715-3.823 3.823-3.823 0.8 0 1.545 0.248 2.159 0.671l0.351-0.505a4.415 4.415 0 0 0-2.51-0.778z" fill-rule="evenodd"></path></g><g id="SvgjsG3939"><use xlink:href="#SvgjsG3918" transform="translate(0, 0) scale(2.6)" fill="rgba(99, 81, 206, 1)"></use><use xlink:href="#SvgjsG3919" transform="translate(0, 62.400000000000006) scale(2.6)" fill="rgba(99, 81, 206, 1)"></use><use xlink:href="#SvgjsG3920" transform="translate(0, 124.80000000000001) scale(2.6)" fill="rgba(99, 81, 206, 1)"></use><use xlink:href="#SvgjsG3921" transform="translate(0, 187.20000000000002) scale(2.6)" fill="rgba(99, 81, 206, 1)"></use><use xlink:href="#SvgjsG3922" transform="translate(0, 249.60000000000002) scale(2.6)" fill="rgba(99, 81, 206, 1)"></use><use xlink:href="#SvgjsG3923" transform="translate(0, 312) scale(2.6)" fill="rgba(99, 81, 206, 1)"></use><use xlink:href="#SvgjsG3921" transform="translate(0, 374.40000000000003) scale(2.6)" fill="rgba(99, 81, 206, 1)"></use><use xlink:href="#SvgjsG3924" transform="translate(0, 436.80000000000007) scale(2.6)" fill="rgba(99, 81, 206, 1)"></use><use xlink:href="#SvgjsG3923" transform="translate(0, 499.20000000000005) scale(2.6)" fill="rgba(99, 81, 206, 1)"></use><use xlink:href="#SvgjsG3919" transform="translate(0, 561.6) scale(2.6)" fill="rgba(99, 81, 206, 1)"></use><use xlink:href="#SvgjsG3925" transform="translate(62.400000000000006, 0) scale(2.6)" fill="rgba(99, 81, 206, 1)"></use><use xlink:href="#SvgjsG3926" transform="translate(62.400000000000006, 62.400000000000006) scale(2.6)" fill="rgba(99, 81, 206, 1)"></use><use xlink:href="#SvgjsG3927" transform="translate(62.400000000000006, 124.80000000000001) scale(2.6)" fill="rgba(99, 81, 206, 1)"></use><use xlink:href="#SvgjsG3928" transform="translate(62.400000000000006, 187.20000000000002) scale(2.6)" fill="rgba(99, 81, 206, 1)"></use><use xlink:href="#SvgjsG3923" transform="translate(62.400000000000006, 249.60000000000002) scale(2.6)" fill="rgba(99, 81, 206, 1)"></use><use xlink:href="#SvgjsG3925" transform="translate(62.400000000000006, 312) scale(2.6)" fill="rgba(99, 81, 206, 1)"></use><use xlink:href="#SvgjsG3929" transform="translate(62.400000000000006, 374.40000000000003) scale(2.6)" fill="rgba(99, 81, 206, 1)"></use><use xlink:href="#SvgjsG3923" transform="translate(62.400000000000006, 436.80000000000007) scale(2.6)" fill="rgba(99, 81, 206, 1)"></use><use xlink:href="#SvgjsG3930" transform="translate(62.400000000000006, 499.20000000000005) scale(2.6)" fill="rgba(99, 81, 206, 1)"></use><use xlink:href="#SvgjsG3921" transform="translate(62.400000000000006, 561.6) scale(2.6)" fill="rgba(99, 81, 206, 1)"></use><use xlink:href="#SvgjsG3930" transform="translate(124.80000000000001, 0) scale(2.6)" fill="rgba(99, 81, 206, 1)"></use><use xlink:href="#SvgjsG3930" transform="translate(124.80000000000001, 62.400000000000006) scale(2.6)" fill="rgba(99, 81, 206, 1)"></use><use xlink:href="#SvgjsG3918" transform="translate(124.80000000000001, 124.80000000000001) scale(2.6)" fill="rgba(99, 81, 206, 1)"></use><use xlink:href="#SvgjsG3920" transform="translate(124.80000000000001, 187.20000000000002) scale(2.6)" fill="rgba(99, 81, 206, 1)"></use><use xlink:href="#SvgjsG3921" transform="translate(124.80000000000001, 249.60000000000002) scale(2.6)" fill="rgba(99, 81, 206, 1)"></use><use xlink:href="#SvgjsG3931" transform="translate(124.80000000000001, 312) scale(2.6)" fill="rgba(99, 81, 206, 1)"></use><use xlink:href="#SvgjsG3926" transform="translate(124.80000000000001, 374.40000000000003) scale(2.6)" fill="rgba(99, 81, 206, 1)"></use><use xlink:href="#SvgjsG3921" transform="translate(124.80000000000001, 436.80000000000007) scale(2.6)" fill="rgba(99, 81, 206, 1)"></use><use xlink:href="#SvgjsG3928" transform="translate(124.80000000000001, 499.20000000000005) scale(2.6)" fill="rgba(99, 81, 206, 1)"></use><use xlink:href="#SvgjsG3930" transform="translate(124.80000000000001, 561.6) scale(2.6)" fill="rgba(99, 81, 206, 1)"></use><use xlink:href="#SvgjsG3919" transform="translate(187.20000000000002, 0) scale(2.6)" fill="rgba(99, 81, 206, 1)"></use><use xlink:href="#SvgjsG3923" transform="translate(187.20000000000002, 62.400000000000006) scale(2.6)" fill="rgba(99, 81, 206, 1)"></use><use xlink:href="#SvgjsG3929" transform="translate(187.20000000000002, 124.80000000000001) scale(2.6)" fill="rgba(99, 81, 206, 1)"></use><use xlink:href="#SvgjsG3928" transform="translate(187.20000000000002, 187.20000000000002) scale(2.6)" fill="rgba(99, 81, 206, 1)"></use><use xlink:href="#SvgjsG3932" transform="translate(187.20000000000002, 249.60000000000002) scale(2.6)" fill="rgba(99, 81, 206, 1)"></use><use xlink:href="#SvgjsG3918" transform="translate(187.20000000000002, 312) scale(2.6)" fill="rgba(99, 81, 206, 1)"></use><use xlink:href="#SvgjsG3933" transform="translate(187.20000000000002, 374.40000000000003) scale(2.6)" fill="rgba(99, 81, 206, 1)"></use><use xlink:href="#SvgjsG3927" transform="translate(187.20000000000002, 436.80000000000007) scale(2.6)" fill="rgba(99, 81, 206, 1)"></use><use xlink:href="#SvgjsG3920" transform="translate(187.20000000000002, 499.20000000000005) scale(2.6)" fill="rgba(99, 81, 206, 1)"></use><use xlink:href="#SvgjsG3934" transform="translate(187.20000000000002, 561.6) scale(2.6)" fill="rgba(99, 81, 206, 1)"></use><use xlink:href="#SvgjsG3922" transform="translate(249.60000000000002, 0) scale(2.6)" fill="rgba(99, 81, 206, 1)"></use><use xlink:href="#SvgjsG3919" transform="translate(249.60000000000002, 62.400000000000006) scale(2.6)" fill="rgba(99, 81, 206, 1)"></use><use xlink:href="#SvgjsG3935" transform="translate(249.60000000000002, 124.80000000000001) scale(2.6)" fill="rgba(99, 81, 206, 1)"></use><use xlink:href="#SvgjsG3928" transform="translate(249.60000000000002, 187.20000000000002) scale(2.6)" fill="rgba(99, 81, 206, 1)"></use><use xlink:href="#SvgjsG3936" transform="translate(249.60000000000002, 249.60000000000002) scale(2.6)" fill="rgba(99, 81, 206, 1)"></use><use xlink:href="#SvgjsG3928" transform="translate(249.60000000000002, 312) scale(2.6)" fill="rgba(99, 81, 206, 1)"></use><use xlink:href="#SvgjsG3936" transform="translate(249.60000000000002, 374.40000000000003) scale(2.6)" fill="rgba(99, 81, 206, 1)"></use><use xlink:href="#SvgjsG3924" transform="translate(249.60000000000002, 436.80000000000007) scale(2.6)" fill="rgba(99, 81, 206, 1)"></use><use xlink:href="#SvgjsG3927" transform="translate(249.60000000000002, 499.20000000000005) scale(2.6)" fill="rgba(99, 81, 206, 1)"></use><use xlink:href="#SvgjsG3925" transform="translate(249.60000000000002, 561.6) scale(2.6)" fill="rgba(99, 81, 206, 1)"></use><use xlink:href="#SvgjsG3921" transform="translate(312, 0) scale(2.6)" fill="rgba(99, 81, 206, 1)"></use><use xlink:href="#SvgjsG3924" transform="translate(312, 62.400000000000006) scale(2.6)" fill="rgba(99, 81, 206, 1)"></use><use xlink:href="#SvgjsG3927" transform="translate(312, 124.80000000000001) scale(2.6)" fill="rgba(99, 81, 206, 1)"></use><use xlink:href="#SvgjsG3920" transform="translate(312, 187.20000000000002) scale(2.6)" fill="rgba(99, 81, 206, 1)"></use><use xlink:href="#SvgjsG3918" transform="translate(312, 249.60000000000002) scale(2.6)" fill="rgba(99, 81, 206, 1)"></use><use xlink:href="#SvgjsG3922" transform="translate(312, 312) scale(2.6)" fill="rgba(99, 81, 206, 1)"></use><use xlink:href="#SvgjsG3933" transform="translate(312, 374.40000000000003) scale(2.6)" fill="rgba(99, 81, 206, 1)"></use><use xlink:href="#SvgjsG3930" transform="translate(312, 436.80000000000007) scale(2.6)" fill="rgba(99, 81, 206, 1)"></use><use xlink:href="#SvgjsG3937" transform="translate(312, 499.20000000000005) scale(2.6)" fill="rgba(99, 81, 206, 1)"></use><use xlink:href="#SvgjsG3933" transform="translate(312, 561.6) scale(2.6)" fill="rgba(99, 81, 206, 1)"></use><use xlink:href="#SvgjsG3926" transform="translate(374.40000000000003, 0) scale(2.6)" fill="rgba(99, 81, 206, 1)"></use><use xlink:href="#SvgjsG3936" transform="translate(374.40000000000003, 62.400000000000006) scale(2.6)" fill="rgba(99, 81, 206, 1)"></use><use xlink:href="#SvgjsG3934" transform="translate(374.40000000000003, 124.80000000000001) scale(2.6)" fill="rgba(99, 81, 206, 1)"></use><use xlink:href="#SvgjsG3919" transform="translate(374.40000000000003, 187.20000000000002) scale(2.6)" fill="rgba(99, 81, 206, 1)"></use><use xlink:href="#SvgjsG3922" transform="translate(374.40000000000003, 249.60000000000002) scale(2.6)" fill="rgba(99, 81, 206, 1)"></use><use xlink:href="#SvgjsG3936" transform="translate(374.40000000000003, 312) scale(2.6)" fill="rgba(99, 81, 206, 1)"></use><use xlink:href="#SvgjsG3924" transform="translate(374.40000000000003, 374.40000000000003) scale(2.6)" fill="rgba(99, 81, 206, 1)"></use><use xlink:href="#SvgjsG3929" transform="translate(374.40000000000003, 436.80000000000007) scale(2.6)" fill="rgba(99, 81, 206, 1)"></use><use xlink:href="#SvgjsG3923" transform="translate(374.40000000000003, 499.20000000000005) scale(2.6)" fill="rgba(99, 81, 206, 1)"></use><use xlink:href="#SvgjsG3929" transform="translate(374.40000000000003, 561.6) scale(2.6)" fill="rgba(99, 81, 206, 1)"></use><use xlink:href="#SvgjsG3925" transform="translate(436.80000000000007, 0) scale(2.6)" fill="rgba(99, 81, 206, 1)"></use><use xlink:href="#SvgjsG3930" transform="translate(436.80000000000007, 62.400000000000006) scale(2.6)" fill="rgba(99, 81, 206, 1)"></use><use xlink:href="#SvgjsG3929" transform="translate(436.80000000000007, 124.80000000000001) scale(2.6)" fill="rgba(99, 81, 206, 1)"></use><use xlink:href="#SvgjsG3935" transform="translate(436.80000000000007, 187.20000000000002) scale(2.6)" fill="rgba(99, 81, 206, 1)"></use><use xlink:href="#SvgjsG3938" transform="translate(436.80000000000007, 249.60000000000002) scale(2.6)" fill="rgba(99, 81, 206, 1)"></use><use xlink:href="#SvgjsG3934" transform="translate(436.80000000000007, 312) scale(2.6)" fill="rgba(99, 81, 206, 1)"></use><use xlink:href="#SvgjsG3930" transform="translate(436.80000000000007, 374.40000000000003) scale(2.6)" fill="rgba(99, 81, 206, 1)"></use><use xlink:href="#SvgjsG3929" transform="translate(436.80000000000007, 436.80000000000007) scale(2.6)" fill="rgba(99, 81, 206, 1)"></use><use xlink:href="#SvgjsG3925" transform="translate(436.80000000000007, 499.20000000000005) scale(2.6)" fill="rgba(99, 81, 206, 1)"></use><use xlink:href="#SvgjsG3934" transform="translate(436.80000000000007, 561.6) scale(2.6)" fill="rgba(99, 81, 206, 1)"></use><use xlink:href="#SvgjsG3938" transform="translate(499.20000000000005, 0) scale(2.6)" fill="rgba(99, 81, 206, 1)"></use><use xlink:href="#SvgjsG3931" transform="translate(499.20000000000005, 62.400000000000006) scale(2.6)" fill="rgba(99, 81, 206, 1)"></use><use xlink:href="#SvgjsG3922" transform="translate(499.20000000000005, 124.80000000000001) scale(2.6)" fill="rgba(99, 81, 206, 1)"></use><use xlink:href="#SvgjsG3937" transform="translate(499.20000000000005, 187.20000000000002) scale(2.6)" fill="rgba(99, 81, 206, 1)"></use><use xlink:href="#SvgjsG3930" transform="translate(499.20000000000005, 249.60000000000002) scale(2.6)" fill="rgba(99, 81, 206, 1)"></use><use xlink:href="#SvgjsG3923" transform="translate(499.20000000000005, 312) scale(2.6)" fill="rgba(99, 81, 206, 1)"></use><use xlink:href="#SvgjsG3936" transform="translate(499.20000000000005, 374.40000000000003) scale(2.6)" fill="rgba(99, 81, 206, 1)"></use><use xlink:href="#SvgjsG3923" transform="translate(499.20000000000005, 436.80000000000007) scale(2.6)" fill="rgba(99, 81, 206, 1)"></use><use xlink:href="#SvgjsG3918" transform="translate(499.20000000000005, 499.20000000000005) scale(2.6)" fill="rgba(99, 81, 206, 1)"></use><use xlink:href="#SvgjsG3921" transform="translate(499.20000000000005, 561.6) scale(2.6)" fill="rgba(99, 81, 206, 1)"></use><use xlink:href="#SvgjsG3932" transform="translate(561.6, 0) scale(2.6)" fill="rgba(99, 81, 206, 1)"></use><use xlink:href="#SvgjsG3919" transform="translate(561.6, 62.400000000000006) scale(2.6)" fill="rgba(99, 81, 206, 1)"></use><use xlink:href="#SvgjsG3933" transform="translate(561.6, 124.80000000000001) scale(2.6)" fill="rgba(99, 81, 206, 1)"></use><use xlink:href="#SvgjsG3931" transform="translate(561.6, 187.20000000000002) scale(2.6)" fill="rgba(99, 81, 206, 1)"></use><use xlink:href="#SvgjsG3920" transform="translate(561.6, 249.60000000000002) scale(2.6)" fill="rgba(99, 81, 206, 1)"></use><use xlink:href="#SvgjsG3922" transform="translate(561.6, 312) scale(2.6)" fill="rgba(99, 81, 206, 1)"></use><use xlink:href="#SvgjsG3918" transform="translate(561.6, 374.40000000000003) scale(2.6)" fill="rgba(99, 81, 206, 1)"></use><use xlink:href="#SvgjsG3923" transform="translate(561.6, 436.80000000000007) scale(2.6)" fill="rgba(99, 81, 206, 1)"></use><use xlink:href="#SvgjsG3937" transform="translate(561.6, 499.20000000000005) scale(2.6)" fill="rgba(99, 81, 206, 1)"></use><use xlink:href="#SvgjsG3925" transform="translate(561.6, 561.6) scale(2.6)" fill="rgba(99, 81, 206, 1)"></use></g></defs></svg>